<svg width="243" height="80" viewBox="0 0 243 80" fill="none" xmlns="http://www.w3.org/2000/svg">
<path d="M2 67.5078C5.22958 66.1659 8.46153 64.5422 11.5458 63" stroke="white" stroke-width="3" stroke-linecap="round"/>
<path d="M2.26514 68.1707C3.0136 69.5995 4.11538 70.8164 5.24821 71.9492C5.6614 72.3624 6.06607 72.7671 6.47827 73.1793C7.0001 73.7011 8.49645 74.5568 8.49645 75.33" stroke="white" stroke-width="3" stroke-linecap="round"/>
<path d="M5 68C50.2106 94.9033 141.73 58.9212 151.006 52.3437C152.648 51.179 153.592 48.3304 153.592 46.2937C153.592 40.1081 144.041 43.5227 141.725 45.1652C134.188 50.5098 138.82 57.566 146.064 59.1147C152.619 60.5162 158.839 60.2735 165.028 57.4219C177.062 51.877 188.699 44.3264 199.623 36.6074C213.032 27.1327 225.822 16.4826 238.184 5.4482C239.363 4.39579 240.337 3.44739 241 2" stroke="white" stroke-width="3" stroke-linecap="round"/>
</svg>
